HIERARCHY
ROOT Hips
{
 OFFSET 0.000000 0.000000 0.000000
 CHANNELS 6 Xposition Yposition Zposition Yrotation Xrotation Zrotation
 JOINT Chest
 {
  OFFSET 0.000000 9.585900 0.002600
  CHANNELS 3 Yrotation Xrotation Zrotation
  JOINT Chest2
  {
   OFFSET 0.000000 9.601200 -0.005300
   CHANNELS 3 Yrotation Xrotation Zrotation
   JOINT Chest3
   {
    OFFSET 0.000000 9.561800 0.000000
    CHANNELS 3 Yrotation Xrotation Zrotation
    JOINT Chest4
    {
     OFFSET 0.000000 9.552100 0.000000
     CHANNELS 3 Yrotation Xrotation Zrotation
     JOINT Neck
     {
      OFFSET 0.000000 14.453000 0.000000
      CHANNELS 3 Yrotation Xrotation Zrotation
      JOINT Head
      {
       OFFSET 0.000000 8.936500 -0.011300
       CHANNELS 3 Yrotation Xrotation Zrotation
       End Site
       {
        OFFSET 0.000000 17.073600 -0.006000
       }
      }
     }
     JOINT RightCollar
     {
      OFFSET -2.921100 9.558500 0.000000
      CHANNELS 3 Yrotation Xrotation Zrotation
      JOINT RightShoulder
      {
       OFFSET -13.519700 0.000000 0.000000
       CHANNELS 3 Yrotation Xrotation Zrotation
       JOINT RightElbow
       {
        OFFSET 0.000000 -29.696600 0.000000
        CHANNELS 3 Yrotation Xrotation Zrotation
        JOINT RightWrist
        {
         OFFSET 0.000000 -24.004700 0.000000
         CHANNELS 3 Yrotation Xrotation Zrotation
         End Site
         {
          OFFSET 0.000000 -17.728500 0.000000
         }
        }
       }
      }
     }
     JOINT LeftCollar
     {
      OFFSET 2.921100 9.558500 0.000000
      CHANNELS 3 Yrotation Xrotation Zrotation
      JOINT LeftShoulder
      {
       OFFSET 13.519700 0.000000 0.000000
       CHANNELS 3 Yrotation Xrotation Zrotation
       JOINT LeftElbow
       {
        OFFSET 0.000000 -29.696600 0.000000
        CHANNELS 3 Yrotation Xrotation Zrotation
        JOINT LeftWrist
        {
         OFFSET 0.000000 -24.004700 0.000000
         CHANNELS 3 Yrotation Xrotation Zrotation
         End Site
         {
          OFFSET 0.000000 -17.728500 0.000000
         }
        }
       }
      }
     }
    }
   }
  }
 }
 JOINT RightHip
 {
  OFFSET -7.771700 -0.012900 -0.001300
  CHANNELS 3 Yrotation Xrotation Zrotation
  JOINT RightKnee
  {
   OFFSET 0.000000 -40.869800 0.001200
   CHANNELS 3 Yrotation Xrotation Zrotation
   JOINT RightAnkle
   {
    OFFSET 0.000000 -39.717900 0.002100
    CHANNELS 3 Yrotation Xrotation Zrotation
    JOINT RightToe
    {
     OFFSET 0.000000 -4.965400 11.033500
     CHANNELS 3 Yrotation Xrotation Zrotation
     End Site
     {
      OFFSET 0.000000 -1.423100 5.872300
     }
    }
   }
  }
 }
 JOINT LeftHip
 {
  OFFSET 7.771700 -0.012900 -0.001300
  CHANNELS 3 Yrotation Xrotation Zrotation
  JOINT LeftKnee
  {
   OFFSET 0.000000 -40.869800 0.001200
   CHANNELS 3 Yrotation Xrotation Zrotation
   JOINT LeftAnkle
   {
    OFFSET 0.000000 -39.717900 0.002100
    CHANNELS 3 Yrotation Xrotation Zrotation
    JOINT LeftToe
    {
     OFFSET 0.000000 -4.965400 11.033500
     CHANNELS 3 Yrotation Xrotation Zrotation
     End Site
     {
      OFFSET 0.000000 -1.423100 5.872300
     }
    }
   }
  }
 }
}
MOTION
Frames: 16
Frame Time: 0.008333
0.000000 85.388000 0.000000 0.000000 -5.767877 0.000000 0.000000 11.653817 0.000000 0.000000 -5.885947 0.000000 0.000000 -0.000000 0.000000 0.000000 -0.000000 0.000000 0.000000 12.528835 0.000000 0.000000 0.711642 0.000000 0.000000 -0.000000 0.000000 0.000000 0.000000 -90.000000 0.000000 -2.309062 0.000000 0.000000 2.309062 0.000000 0.000000 -0.000000 0.000000 0.000000 -0.000000 90.000000 0.000000 -2.309062 0.000000 0.000000 2.309062 0.000000 0.000000 8.520406 0.000000 0.000000 1.905762 0.000000 -0.000000 -4.658285 0.000000 0.000000 -0.000000 0.000000 0.000000 8.520406 0.000000 0.000000 1.905762 0.000000 -0.000000 -4.658285 0.000000 0.000000 -0.000000 0.000000
14.374901 50.023909 53.064469 173.693469 -31.939402 -5.441650 9.465035 24.012885 8.487989 1.357117 4.157420 1.002354 2.200455 6.566474 1.650541 7.582173 19.881432 6.052773 -9.474006 20.274249 3.876935 -18.381202 3.138673 9.762566 -0.086456 -2.296660 -7.896313 4.176048 -19.599443 -10.184759 -124.081335 -37.000159 136.663128 -17.519004 -4.385609 38.777290 -15.933208 -5.841818 3.101152 -2.010507 -28.775529 3.737486 112.122446 -43.275731 -137.304327 50.434789 -2.285319 -18.187760 1.434208 -49.024931 8.350307 -137.529695 85.380981 -126.342983 -3.117973 -13.229986 -3.045888 -0.057940 0.616266 0.019537 -7.668992 -52.468714 13.311606 -153.654644 81.449772 -160.792117 1.021767 -15.962182 7.352979 -0.139058 -0.674369 -0.101676
14.362006 50.026679 53.075611 173.706058 -31.904027 -5.457142 9.452034 23.994782 8.485515 1.354831 4.183687 0.997693 2.199353 6.633537 1.643925 7.583664 19.918234 6.050051 -9.454742 20.187997 3.910616 -18.393884 3.079556 9.817052 -0.124228 -2.307148 -7.854863 4.403655 -19.680612 -9.927505 -123.811715 -37.151345 136.113833 -17.696740 -4.490634 37.491259 -15.991586 -5.836706 3.120502 -2.172838 -28.849842 3.610114 111.777705 -43.270561 -136.480821 50.546279 -3.121618 -15.581945 1.450286 -49.058079 8.359872 -137.140121 85.387228 -125.945923 -3.242055 -13.236021 -2.997485 -0.081318 0.638321 0.003034 -7.695360 -52.508255 13.330049 -153.238668 81.451456 -160.401130 1.087671 -15.902201 7.379027 -0.156192 -0.676033 -0.092859
14.352939 50.032674 53.085099 173.698894 -31.885196 -5.494187 9.467997 24.036363 8.500012 1.364666 4.159294 1.009793 2.201755 6.692124 1.634242 7.588697 19.948949 6.045846 -9.465141 20.197655 3.944494 -18.370908 2.905535 9.884971 -0.171924 -2.325336 -7.809053 4.612623 -19.721040 -9.672088 -123.567006 -37.299829 135.580590 -17.841398 -4.543704 36.137414 -16.043062 -5.830687 3.140870 -2.327937 -28.914719 3.468256 111.463867 -43.331055 -135.644750 50.567556 -3.899001 -13.139605 1.450585 -49.074149 8.400111 -136.860315 85.405208 -125.669949 -3.228051 -13.221595 -2.981820 -0.070492 0.650265 0.002562 -7.706015 -52.525344 13.370357 -153.126004 81.462800 -160.281987 1.096463 -15.873339 7.395754 -0.165896 -0.674889 -0.088037
14.344098 50.040022 53.093617 173.681705 -31.866363 -5.532197 9.503359 24.128892 8.496445 1.374207 4.168547 1.017553 2.215331 6.653791 1.649393 7.597679 19.974874 6.041714 -9.463596 20.146843 3.970402 -18.368781 2.768546 9.946115 -0.224527 -2.354080 -7.759396 4.801206 -19.708375 -9.423220 -123.346115 -37.456509 135.079344 -17.955519 -4.551173 34.701437 -16.096109 -5.827023 3.164517 -2.480347 -28.965251 3.315594 111.170910 -43.444172 -134.776895 50.485115 -4.580258 -10.964425 1.421505 -49.091495 8.458037 -136.720482 85.426571 -125.555451 -3.149212 -13.187580 -2.981518 -0.051982 0.644744 0.006254 -7.684217 -52.544102 13.396449 -153.094769 81.475637 -160.220926 1.086270 -15.850836 7.406716 -0.165048 -0.670995 -0.080311
14.334456 50.048546 53.099647 173.677150 -31.849004 -5.571542 9.526277 24.158174 8.511585 1.377390 4.198919 1.011719 2.223828 6.612623 1.667842 7.607604 20.038725 6.032411 -9.460327 20.071482 3.996183 -18.379509 2.634149 10.003540 -0.250254 -2.423155 -7.724239 4.932871 -19.609770 -9.162561 -123.134280 -37.622591 134.613223 -18.029419 -4.505493 33.193112 -16.154268 -5.826189 3.190701 -2.645385 -28.994036 3.161057 110.908356 -43.602233 -133.864524 50.292600 -5.139608 -9.113972 1.425328 -49.102283 8.491606 -136.440799 85.441520 -125.266341 -3.152686 -13.178372 -2.965466 -0.092293 0.650967 0.004494 -7.639987 -52.559346 13.404516 -153.138837 81.496419 -160.234951 1.057184 -15.833304 7.438160 -0.173054 -0.663416 -0.080252
14.323509 50.058426 53.101236 173.675217 -31.842538 -5.599320 9.545624 24.193527 8.514652 1.382296 4.209966 1.012815 2.232302 6.649995 1.664095 7.622103 20.036796 6.035368 -9.458565 19.990428 4.023994 -18.399320 2.483376 10.058379 -0.312138 -2.452310 -7.662128 5.069235 -19.514571 -8.942745 -122.921719 -37.789973 134.177211 -18.054287 -4.394971 31.632746 -16.187928 -5.868581 3.226384 -2.857373 -28.960905 2.992740 110.685710 -43.812218 -132.905252 49.994087 -5.570361 -7.594673 1.465655 -49.097102 8.497439 -136.063625 85.447758 -124.845444 -3.273479 -13.196603 -2.925075 -0.083555 0.669660 -0.012262 -7.562419 -52.565670 13.380729 -153.243719 81.516688 -160.302647 1.009730 -15.809631 7.464433 -0.175915 -0.665971 -0.072137
14.312141 50.067928 53.100116 173.671146 -31.833669 -5.617546 9.560539 24.202407 8.521721 1.387147 4.227630 1.006814 2.242241 6.695529 1.655664 7.631672 20.015477 6.043641 -9.462995 19.918237 4.038407 -18.426198 2.321344 10.110489 -0.365688 -2.472443 -7.608629 5.159997 -19.374944 -8.730837 -122.702240 -37.958503 133.765607 -18.023318 -4.217506 30.046397 -16.250276 -5.834342 3.236958 -3.061494 -28.972566 2.846340 110.489497 -44.090827 -131.896987 49.618641 -5.884336 -6.363560 1.470459 -49.097715 8.519896 -135.822430 85.448948 -124.586601 -3.384077 -13.198726 -2.892940 -0.093063 0.665987 -0.025630 -7.468957 -52.577431 13.334622 -153.283235 81.528477 -160.290822 0.962571 -15.784736 7.475063 -0.151340 -0.670854 -0.057662
14.302740 50.077716 53.094658 173.666114 -31.835357 -5.639388 9.582766 24.217836 8.536520 1.397772 4.251261 0.998246 2.239623 6.682405 1.668115 7.632675 20.004842 6.047348 -9.473628 19.871900 4.032363 -18.459919 2.151941 10.157402 -0.398716 -2.473588 -7.577209 5.201138 -19.188454 -8.518474 -122.485232 -38.147402 133.377258 -17.946575 -3.978531 28.474849 -16.297478 -5.772218 3.225554 -3.273489 -28.979705 2.699901 110.310138 -44.433560 -130.855660 49.219857 -6.105371 -5.316907 1.488139 -49.083334 8.523427 -135.658576 85.451030 -124.404865 -3.369805 -13.205885 -2.891983 -0.087304 0.669241 -0.023568 -7.380656 -52.574157 13.305230 -153.327007 81.535690 -160.304638 0.934665 -15.769970 7.507115 -0.157726 -0.676679 -0.054068
14.299007 50.086700 53.086708 173.670175 -31.838194 -5.693537 9.643642 24.268564 8.560766 1.392704 4.236001 1.019471 2.231501 6.662846 1.686272 7.648584 20.049543 6.050897 -9.482617 19.782259 4.049923 -18.508393 1.950415 10.203816 -0.431869 -2.541420 -7.549789 5.210430 -18.977166 -8.309867 -122.302492 -38.390882 133.015522 -17.849654 -3.694186 26.965297 -16.337387 -5.789452 3.235757 -3.497318 -28.971799 2.559682 110.140591 -44.799129 -129.817519 48.845817 -6.261357 -4.311860 1.458536 -49.063497 8.558664 -135.601770 85.456680 -124.344898 -3.208801 -13.200224 -2.927207 -0.051641 0.666392 -0.007381 -7.347859 -52.573088 13.334327 -153.318410 81.525099 -160.270457 0.923890 -15.746806 7.536741 -0.172966 -0.695580 -0.052076
14.293572 50.093201 53.076065 173.696774 -31.834763 -5.743212 9.664071 24.283302 8.588336 1.393087 4.241092 1.021407 2.231561 6.677099 1.688543 7.662446 20.111321 6.049761 -9.485430 19.655222 4.088890 -18.573699 1.731737 10.256820 -0.451547 -2.652237 -7.519579 5.190419 -18.753643 -8.104751 -122.182829 -38.710858 132.681022 -17.741240 -3.388689 25.546789 -16.376579 -5.849948 3.268860 -3.719561 -28.962039 2.444899 109.930415 -45.135483 -128.788978 48.504551 -6.386517 -3.240314 1.420047 -49.047645 8.580238 -135.593550 85.456306 -124.324614 -3.137212 -13.210972 -2.944651 -0.039898 0.665188 -0.002541 -7.331481 -52.578630 13.345055 -153.248214 81.509631 -160.182273 0.925642 -15.728577 7.572044 -0.181194 -0.707817 -0.058243
14.287066 50.096799 53.063097 173.768536 -31.822454 -5.804098 9.636180 24.288412 8.607459 1.397488 4.249820 1.018247 2.246945 6.719919 1.674039 7.641301 20.077862 6.069313 -9.529617 19.506643 4.089373 -18.628278 1.576472 10.288262 -0.481489 -2.695606 -7.491365 5.192319 -18.533951 -7.934415 -122.131927 -39.107696 132.368095 -17.608738 -3.086879 24.225310 -16.387884 -5.871360 3.279477 -3.936846 -28.938196 2.345208 109.630059 -45.400790 -127.756716 48.169493 -6.506542 -2.037689 1.353023 -49.035283 8.593341 -135.580881 85.446227 -124.287016 -3.173959 -13.236703 -2.937600 -0.061695 0.662229 -0.012680 -7.363010 -52.593998 13.353939 -153.122503 81.486915 -160.054575 0.940087 -15.713688 7.609440 -0.188547 -0.714497 -0.065057
14.282315 50.097466 53.048691 173.838235 -31.803905 -5.867725 9.617126 24.289812 8.627293 1.394208 4.250756 1.019397 2.237622 6.710136 1.685034 7.632212 20.089822 6.068657 -9.578774 19.380521 4.092909 -18.699461 1.393845 10.326024 -0.515548 -2.731596 -7.472018 5.201302 -18.315600 -7.784247 -122.150809 -39.576773 132.069996 -17.440185 -2.809068 22.997126 -16.396426 -5.882862 3.282582 -4.143012 -28.913319 2.274930 109.232782 -45.572830 -126.721083 47.811680 -6.634924 -0.678114 1.281230 -49.030981 8.597512 -135.793142 85.445360 -124.483314 -3.113498 -13.259136 -2.955762 -0.059485 0.660026 -0.011683 -7.422666 -52.614531 13.389534 -152.943224 81.454957 -159.887685 0.964462 -15.709224 7.648765 -0.199557 -0.714422 -0.073812
14.279693 50.095963 53.032084 173.895770 -31.787669 -5.928596 9.613225 24.295488 8.645978 1.380997 4.239627 1.030143 2.234167 6.707345 1.692010 7.626471 20.083763 6.073358 -9.637419 19.275356 4.093242 -18.780748 1.192646 10.375103 -0.557655 -2.750136 -7.459155 5.221010 -18.104494 -7.660486 -122.230969 -40.107448 131.777605 -17.229534 -2.566638 21.855660 -16.466134 -5.855420 3.227478 -4.313426 -28.897460 2.293608 108.756270 -45.664352 -125.693976 47.426484 -6.785766 0.777600 1.241272 -49.025059 8.584204 -136.111754 85.450439 -124.755393 -3.097766 -13.330074 -2.951969 -0.111137 0.697135 -0.037026 -7.502137 -52.634423 13.451724 -152.735548 81.413483 -159.706911 1.016540 -15.674781 7.686732 -0.229234 -0.750587 -0.087476
14.274080 50.090502 53.015458 173.933906 -31.755703 -5.951111 9.594042 24.279528 8.634036 1.371741 4.229307 1.041155 2.231590 6.727253 1.652265 7.619169 20.073522 6.099497 -9.678985 19.147533 4.104717 -18.856251 0.990930 10.428397 -0.671925 -2.792671 -7.442400 5.336099 -17.898914 -7.556684 -122.340229 -40.671694 131.480926 -16.970959 -2.356521 20.786831 -16.486779 -5.871879 3.206467 -4.492160 -28.836503 2.297204 108.234636 -45.723474 -124.683481 47.028282 -6.949228 2.167639 1.214674 -49.049490 8.587975 -136.202640 85.430702 -124.818946 -3.253769 -13.367988 -2.911639 -0.158214 0.697860 -0.061963 -7.551889 -52.674368 13.481882 -152.521853 81.368125 -159.528103 1.047672 -15.663425 7.719982 -0.241527 -0.764054 -0.092547
14.272949 50.084092 52.997289 173.949250 -31.730270 -5.974315 9.588965 24.257476 8.642793 1.377795 4.239467 1.023991 2.219005 6.713228 1.650620 7.597597 20.077150 6.096492 -9.709325 19.022340 4.121379 -18.920487 0.788984 10.485307 -0.722916 -2.820258 -7.423616 5.393846 -17.694824 -7.476860 -122.430934 -41.228705 131.167904 -16.668833 -2.158949 19.777432 -16.498513 -5.889362 3.181366 -4.661339 -28.746993 2.316569 107.721637 -45.820981 -123.697464 46.627187 -7.082713 3.298749 1.193633 -49.070727 8.594783 -136.483991 85.422868 -125.090542 -3.242831 -13.393596 -2.913016 -0.145514 0.699923 -0.064629 -7.597094 -52.702693 13.526254 -152.318451 81.321218 -159.352871 1.090781 -15.680817 7.748758 -0.265568 -0.759928 -0.102812
